<svg xmlns="http://www.w3.org/2000/svg" viewBox="0 0 24 24" width="24" height="24" fill="none">
  <!-- Modified: 2026-02-07T23:30:00Z | Author: COPILOT | Change: SLATE activity bar icon — starburst + S -->
  <!-- Outer starburst rays -->
  <line x1="12" y1="12" x2="12" y2="2" stroke="currentColor" stroke-width="1.5" stroke-linecap="round" opacity="0.7"/>
  <line x1="12" y1="12" x2="22" y2="12" stroke="currentColor" stroke-width="1.5" stroke-linecap="round" opacity="0.7"/>
  <line x1="12" y1="12" x2="12" y2="22" stroke="currentColor" stroke-width="1.5" stroke-linecap="round" opacity="0.7"/>
  <line x1="12" y1="12" x2="2" y2="12" stroke="currentColor" stroke-width="1.5" stroke-linecap="round" opacity="0.7"/>
  <!-- Diagonal rays -->
  <line x1="12" y1="12" x2="19.07" y2="4.93" stroke="currentColor" stroke-width="0.8" stroke-linecap="round" opacity="0.4"/>
  <line x1="12" y1="12" x2="19.07" y2="19.07" stroke="currentColor" stroke-width="0.8" stroke-linecap="round" opacity="0.4"/>
  <line x1="12" y1="12" x2="4.93" y2="19.07" stroke="currentColor" stroke-width="0.8" stroke-linecap="round" opacity="0.4"/>
  <line x1="12" y1="12" x2="4.93" y2="4.93" stroke="currentColor" stroke-width="0.8" stroke-linecap="round" opacity="0.4"/>
  <!-- Center circle -->
  <circle cx="12" cy="12" r="5" fill="none" stroke="currentColor" stroke-width="1.2"/>
  <!-- S letterform -->
  <path d="M14 9.5H10.8C10.08 9.5 9.5 10.08 9.5 10.8C9.5 11.52 10.08 12.1 10.8 12.1H13.2C13.92 12.1 14.5 12.68 14.5 13.4C14.5 14.12 13.92 14.7 13.2 14.7H10" 
        stroke="currentColor" stroke-width="1.3" stroke-linecap="round" stroke-linejoin="round"/>
  <!-- Node dots -->
  <circle cx="12" cy="2" r="1" fill="currentColor"/>
  <circle cx="22" cy="12" r="1" fill="currentColor"/>
  <circle cx="12" cy="22" r="1" fill="currentColor"/>
  <circle cx="2" cy="12" r="1" fill="currentColor"/>
</svg>
