<svg xmlns="http://www.w3.org/2000/svg" viewBox="0 0 128 128" width="128" height="128">
  <defs>
    <radialGradient id="centerGlow"><stop offset="0%" stop-color="#B87333" stop-opacity="0.5"/><stop offset="100%" stop-color="#B87333" stop-opacity="0"/></radialGradient>
    <linearGradient id="hexGrad" x1="0%" y1="0%" x2="100%" y2="100%"><stop offset="0%" stop-color="#B87333" stop-opacity="0.12"/><stop offset="100%" stop-color="#8B5E2B" stop-opacity="0.04"/></linearGradient>
  </defs>
  <polygon points="100.0,43.2 100.0,84.8 64.0,105.6 28.0,84.8 28.0,43.2 64.0,22.4" fill="url(#hexGrad)" stroke="#B87333" stroke-width="1.2" opacity="0.7"/>
  <line x1="73.6" y1="64.0" x2="84.7" y2="68.2" stroke="#B87333" stroke-width="0.5" opacity="0.2"/><line x1="68.8" y1="72.3" x2="79.8" y2="78.0" stroke="#B87333" stroke-width="0.5" opacity="0.2"/><line x1="59.2" y1="72.3" x2="70.7" y2="84.0" stroke="#B87333" stroke-width="0.5" opacity="0.2"/><line x1="54.4" y1="64.0" x2="59.8" y2="84.7" stroke="#B87333" stroke-width="0.5" opacity="0.2"/><line x1="59.2" y1="55.7" x2="50.0" y2="79.8" stroke="#B87333" stroke-width="0.5" opacity="0.2"/><line x1="68.8" y1="55.7" x2="44.0" y2="70.7" stroke="#B87333" stroke-width="0.5" opacity="0.2"/><line x1="84.7" y1="68.2" x2="94.1" y2="76.7" stroke="#B87333" stroke-width="0.5" opacity="0.2"/><line x1="79.8" y1="78.0" x2="87.9" y2="86.2" stroke="#B87333" stroke-width="0.5" opacity="0.2"/><line x1="70.7" y1="84.0" x2="78.9" y2="93.1" stroke="#B87333" stroke-width="0.5" opacity="0.2"/><line x1="59.8" y1="84.7" x2="68.0" y2="96.4" stroke="#B87333" stroke-width="0.5" opacity="0.2"/><line x1="50.0" y1="79.8" x2="56.7" y2="95.8" stroke="#B87333" stroke-width="0.5" opacity="0.2"/><line x1="44.0" y1="70.7" x2="46.3" y2="91.4" stroke="#B87333" stroke-width="0.5" opacity="0.2"/><line x1="43.3" y1="59.8" x2="38.0" y2="83.7" stroke="#B87333" stroke-width="0.5" opacity="0.2"/><line x1="48.2" y1="50.0" x2="32.8" y2="73.6" stroke="#B87333" stroke-width="0.5" opacity="0.2"/><line x1="57.3" y1="44.0" x2="31.4" y2="62.3" stroke="#B87333" stroke-width="0.5" opacity="0.2"/><line x1="68.2" y1="43.3" x2="33.9" y2="51.3" stroke="#B87333" stroke-width="0.5" opacity="0.2"/><line x1="78.0" y1="48.2" x2="40.1" y2="41.8" stroke="#B87333" stroke-width="0.5" opacity="0.2"/><line x1="84.0" y1="57.3" x2="49.1" y2="34.9" stroke="#B87333" stroke-width="0.5" opacity="0.2"/>
  <circle cx="73.6" cy="64.0" r="1.5" fill="#B87333" opacity="0.8"/><circle cx="68.8" cy="72.3" r="1.5" fill="#B87333" opacity="0.8"/><circle cx="59.2" cy="72.3" r="1.5" fill="#B87333" opacity="0.8"/><circle cx="54.4" cy="64.0" r="1.5" fill="#B87333" opacity="0.8"/><circle cx="59.2" cy="55.7" r="1.5" fill="#B87333" opacity="0.8"/><circle cx="68.8" cy="55.7" r="1.5" fill="#B87333" opacity="0.8"/><circle cx="84.7" cy="68.2" r="1.2" fill="#B87333" opacity="0.6000000000000001"/><circle cx="79.8" cy="78.0" r="1.2" fill="#B87333" opacity="0.6000000000000001"/><circle cx="70.7" cy="84.0" r="1.2" fill="#B87333" opacity="0.6000000000000001"/><circle cx="59.8" cy="84.7" r="1.2" fill="#B87333" opacity="0.6000000000000001"/><circle cx="50.0" cy="79.8" r="1.2" fill="#B87333" opacity="0.6000000000000001"/><circle cx="44.0" cy="70.7" r="1.2" fill="#B87333" opacity="0.6000000000000001"/><circle cx="43.3" cy="59.8" r="1.2" fill="#B87333" opacity="0.6000000000000001"/><circle cx="48.2" cy="50.0" r="1.2" fill="#B87333" opacity="0.6000000000000001"/><circle cx="57.3" cy="44.0" r="1.2" fill="#B87333" opacity="0.6000000000000001"/><circle cx="68.2" cy="43.3" r="1.2" fill="#B87333" opacity="0.6000000000000001"/><circle cx="78.0" cy="48.2" r="1.2" fill="#B87333" opacity="0.6000000000000001"/><circle cx="84.0" cy="57.3" r="1.2" fill="#B87333" opacity="0.6000000000000001"/><circle cx="94.1" cy="76.7" r="0.9" fill="#B87333" opacity="0.4"/><circle cx="87.9" cy="86.2" r="0.9" fill="#B87333" opacity="0.4"/><circle cx="78.9" cy="93.1" r="0.9" fill="#B87333" opacity="0.4"/><circle cx="68.0" cy="96.4" r="0.9" fill="#B87333" opacity="0.4"/><circle cx="56.7" cy="95.8" r="0.9" fill="#B87333" opacity="0.4"/><circle cx="46.3" cy="91.4" r="0.9" fill="#B87333" opacity="0.4"/><circle cx="38.0" cy="83.7" r="0.9" fill="#B87333" opacity="0.4"/><circle cx="32.8" cy="73.6" r="0.9" fill="#B87333" opacity="0.4"/><circle cx="31.4" cy="62.3" r="0.9" fill="#B87333" opacity="0.4"/><circle cx="33.9" cy="51.3" r="0.9" fill="#B87333" opacity="0.4"/><circle cx="40.1" cy="41.8" r="0.9" fill="#B87333" opacity="0.4"/><circle cx="49.1" cy="34.9" r="0.9" fill="#B87333" opacity="0.4"/><circle cx="60.0" cy="31.6" r="0.9" fill="#B87333" opacity="0.4"/><circle cx="71.3" cy="32.2" r="0.9" fill="#B87333" opacity="0.4"/><circle cx="81.7" cy="36.6" r="0.9" fill="#B87333" opacity="0.4"/><circle cx="90.0" cy="44.3" r="0.9" fill="#B87333" opacity="0.4"/><circle cx="95.2" cy="54.4" r="0.9" fill="#B87333" opacity="0.4"/><circle cx="96.6" cy="65.7" r="0.9" fill="#B87333" opacity="0.4"/>
  <circle cx="64.0" cy="64.0" r="7.68" fill="url(#centerGlow)"/><circle cx="64.0" cy="64.0" r="3.84" fill="#B87333" opacity="0.9"/>
</svg>