<svg xmlns="http://www.w3.org/2000/svg" viewBox="0 0 1200 800" preserveAspectRatio="xMidYMid slice">
  <line x1="248" y1="45" x2="81" y2="115" stroke="rgba(184,115,51,0.020)" stroke-width="0.4"/><line x1="248" y1="45" x2="229" y2="114" stroke="rgba(184,115,51,0.051)" stroke-width="0.4"/><line x1="248" y1="45" x2="162" y2="66" stroke="rgba(184,115,51,0.045)" stroke-width="0.4"/><line x1="583" y1="270" x2="477" y2="162" stroke="rgba(184,115,51,0.020)" stroke-width="0.4"/><line x1="583" y1="270" x2="467" y2="258" stroke="rgba(184,115,51,0.033)" stroke-width="0.4"/><line x1="583" y1="270" x2="589" y2="179" stroke="rgba(184,115,51,0.044)" stroke-width="0.4"/><line x1="583" y1="270" x2="460" y2="364" stroke="rgba(184,115,51,0.020)" stroke-width="0.4"/><line x1="583" y1="270" x2="755" y2="372" stroke="rgba(184,115,51,0.020)" stroke-width="0.4"/><line x1="583" y1="270" x2="486" y2="316" stroke="rgba(184,115,51,0.037)" stroke-width="0.4"/><line x1="583" y1="270" x2="521" y2="187" stroke="rgba(184,115,51,0.039)" stroke-width="0.4"/><line x1="477" y1="162" x2="467" y2="258" stroke="rgba(184,115,51,0.041)" stroke-width="0.4"/><line x1="477" y1="162" x2="589" y2="26" stroke="rgba(184,115,51,0.020)" stroke-width="0.4"/><line x1="477" y1="162" x2="589" y2="179" stroke="rgba(184,115,51,0.035)" stroke-width="0.4"/><line x1="477" y1="162" x2="561" y2="64" stroke="rgba(184,115,51,0.028)" stroke-width="0.4"/><line x1="477" y1="162" x2="486" y2="316" stroke="rgba(184,115,51,0.020)" stroke-width="0.4"/><line x1="477" y1="162" x2="521" y2="187" stroke="rgba(184,115,51,0.060)" stroke-width="0.4"/><line x1="229" y1="712" x2="74" y2="594" stroke="rgba(184,115,51,0.020)" stroke-width="0.4"/><line x1="229" y1="712" x2="346" y2="734" stroke="rgba(184,115,51,0.032)" stroke-width="0.4"/><line x1="229" y1="712" x2="181" y2="585" stroke="rgba(184,115,51,0.026)" stroke-width="0.4"/><line x1="229" y1="712" x2="413" y2="741" stroke="rgba(184,115,51,0.020)" stroke-width="0.4"/><line x1="229" y1="712" x2="166" y2="643" stroke="rgba(184,115,51,0.043)" stroke-width="0.4"/><line x1="884" y1="52" x2="798" y2="119" stroke="rgba(184,115,51,0.036)" stroke-width="0.4"/><line x1="884" y1="52" x2="767" y2="186" stroke="rgba(184,115,51,0.020)" stroke-width="0.4"/><line x1="81" y1="115" x2="229" y2="114" stroke="rgba(184,115,51,0.021)" stroke-width="0.4"/><line x1="81" y1="115" x2="162" y2="66" stroke="rgba(184,115,51,0.042)" stroke-width="0.4"/><line x1="81" y1="115" x2="183" y2="258" stroke="rgba(184,115,51,0.020)" stroke-width="0.4"/><line x1="467" y1="258" x2="589" y2="179" stroke="rgba(184,115,51,0.022)" stroke-width="0.4"/><line x1="467" y1="258" x2="460" y2="364" stroke="rgba(184,115,51,0.038)" stroke-width="0.4"/><line x1="467" y1="258" x2="486" y2="316" stroke="rgba(184,115,51,0.056)" stroke-width="0.4"/><line x1="467" y1="258" x2="521" y2="187" stroke="rgba(184,115,51,0.044)" stroke-width="0.4"/><line x1="1054" y1="636" x2="960" y2="569" stroke="rgba(184,115,51,0.034)" stroke-width="0.4"/><line x1="74" y1="594" x2="181" y2="585" stroke="rgba(184,115,51,0.037)" stroke-width="0.4"/><line x1="74" y1="594" x2="166" y2="643" stroke="rgba(184,115,51,0.038)" stroke-width="0.4"/><line x1="427" y1="753" x2="346" y2="734" stroke="rgba(184,115,51,0.047)" stroke-width="0.4"/><line x1="427" y1="753" x2="413" y2="741" stroke="rgba(184,115,51,0.073)" stroke-width="0.4"/><line x1="427" y1="753" x2="449" y2="706" stroke="rgba(184,115,51,0.059)" stroke-width="0.4"/><line x1="427" y1="753" x2="566" y2="738" stroke="rgba(184,115,51,0.024)" stroke-width="0.4"/><line x1="427" y1="753" x2="370" y2="566" stroke="rgba(184,115,51,0.020)" stroke-width="0.4"/><line x1="471" y1="479" x2="460" y2="364" stroke="rgba(184,115,51,0.034)" stroke-width="0.4"/><line x1="471" y1="479" x2="486" y2="316" stroke="rgba(184,115,51,0.020)" stroke-width="0.4"/><line x1="471" y1="479" x2="589" y2="484" stroke="rgba(184,115,51,0.033)" stroke-width="0.4"/><line x1="471" y1="479" x2="370" y2="566" stroke="rgba(184,115,51,0.027)" stroke-width="0.4"/><line x1="589" y1="26" x2="589" y2="179" stroke="rgba(184,115,51,0.020)" stroke-width="0.4"/><line x1="589" y1="26" x2="561" y2="64" stroke="rgba(184,115,51,0.061)" stroke-width="0.4"/><line x1="589" y1="26" x2="521" y2="187" stroke="rgba(184,115,51,0.020)" stroke-width="0.4"/><line x1="346" y1="734" x2="413" y2="741" stroke="rgba(184,115,51,0.053)" stroke-width="0.4"/><line x1="346" y1="734" x2="449" y2="706" stroke="rgba(184,115,51,0.037)" stroke-width="0.4"/><line x1="346" y1="734" x2="370" y2="566" stroke="rgba(184,115,51,0.020)" stroke-width="0.4"/><line x1="885" y1="368" x2="755" y2="372" stroke="rgba(184,115,51,0.028)" stroke-width="0.4"/><line x1="885" y1="368" x2="778" y2="383" stroke="rgba(184,115,51,0.037)" stroke-width="0.4"/><line x1="589" y1="179" x2="561" y2="64" stroke="rgba(184,115,51,0.033)" stroke-width="0.4"/><line x1="589" y1="179" x2="486" y2="316" stroke="rgba(184,115,51,0.020)" stroke-width="0.4"/><line x1="589" y1="179" x2="767" y2="186" stroke="rgba(184,115,51,0.020)" stroke-width="0.4"/><line x1="589" y1="179" x2="521" y2="187" stroke="rgba(184,115,51,0.053)" stroke-width="0.4"/><line x1="460" y1="364" x2="275" y2="407" stroke="rgba(184,115,51,0.020)" stroke-width="0.4"/><line x1="460" y1="364" x2="486" y2="316" stroke="rgba(184,115,51,0.058)" stroke-width="0.4"/><line x1="460" y1="364" x2="589" y2="484" stroke="rgba(184,115,51,0.020)" stroke-width="0.4"/><line x1="460" y1="364" x2="521" y2="187" stroke="rgba(184,115,51,0.020)" stroke-width="0.4"/><line x1="229" y1="114" x2="162" y2="66" stroke="rgba(184,115,51,0.047)" stroke-width="0.4"/><line x1="229" y1="114" x2="183" y2="258" stroke="rgba(184,115,51,0.020)" stroke-width="0.4"/><line x1="798" y1="119" x2="767" y2="186" stroke="rgba(184,115,51,0.050)" stroke-width="0.4"/><line x1="755" y1="372" x2="767" y2="186" stroke="rgba(184,115,51,0.020)" stroke-width="0.4"/><line x1="755" y1="372" x2="778" y2="383" stroke="rgba(184,115,51,0.070)" stroke-width="0.4"/><line x1="561" y1="64" x2="521" y2="187" stroke="rgba(184,115,51,0.028)" stroke-width="0.4"/><line x1="275" y1="407" x2="183" y2="258" stroke="rgba(184,115,51,0.020)" stroke-width="0.4"/><line x1="275" y1="407" x2="226" y2="409" stroke="rgba(184,115,51,0.060)" stroke-width="0.4"/><line x1="275" y1="407" x2="370" y2="566" stroke="rgba(184,115,51,0.020)" stroke-width="0.4"/><line x1="181" y1="585" x2="226" y2="409" stroke="rgba(184,115,51,0.020)" stroke-width="0.4"/><line x1="181" y1="585" x2="166" y2="643" stroke="rgba(184,115,51,0.056)" stroke-width="0.4"/><line x1="181" y1="585" x2="370" y2="566" stroke="rgba(184,115,51,0.020)" stroke-width="0.4"/><line x1="620" y1="663" x2="760" y2="611" stroke="rgba(184,115,51,0.020)" stroke-width="0.4"/><line x1="620" y1="663" x2="589" y2="484" stroke="rgba(184,115,51,0.020)" stroke-width="0.4"/><line x1="620" y1="663" x2="449" y2="706" stroke="rgba(184,115,51,0.020)" stroke-width="0.4"/><line x1="620" y1="663" x2="566" y2="738" stroke="rgba(184,115,51,0.043)" stroke-width="0.4"/><line x1="413" y1="741" x2="449" y2="706" stroke="rgba(184,115,51,0.060)" stroke-width="0.4"/><line x1="413" y1="741" x2="566" y2="738" stroke="rgba(184,115,51,0.020)" stroke-width="0.4"/><line x1="413" y1="741" x2="370" y2="566" stroke="rgba(184,115,51,0.020)" stroke-width="0.4"/><line x1="162" y1="66" x2="183" y2="258" stroke="rgba(184,115,51,0.020)" stroke-width="0.4"/><line x1="486" y1="316" x2="589" y2="484" stroke="rgba(184,115,51,0.020)" stroke-width="0.4"/><line x1="486" y1="316" x2="521" y2="187" stroke="rgba(184,115,51,0.027)" stroke-width="0.4"/><line x1="183" y1="258" x2="226" y2="409" stroke="rgba(184,115,51,0.020)" stroke-width="0.4"/><line x1="767" y1="186" x2="778" y2="383" stroke="rgba(184,115,51,0.020)" stroke-width="0.4"/><line x1="449" y1="706" x2="566" y2="738" stroke="rgba(184,115,51,0.031)" stroke-width="0.4"/><line x1="449" y1="706" x2="370" y2="566" stroke="rgba(184,115,51,0.020)" stroke-width="0.4"/>
  <circle cx="248" cy="45" r="1.6933903177766736" fill="rgba(184,115,51,0.11)"/><circle cx="583" cy="270" r="2.3880867694318266" fill="rgba(184,115,51,0.19)"/><circle cx="477" cy="162" r="1.3294227609554035" fill="rgba(184,115,51,0.12)"/><circle cx="229" cy="712" r="2.1524703663885583" fill="rgba(184,115,51,0.07)"/><circle cx="1136" cy="109" r="2.2327038910102126" fill="rgba(184,115,51,0.21)"/><circle cx="884" cy="52" r="1.6017471805334935" fill="rgba(184,115,51,0.07)"/><circle cx="81" cy="115" r="2.3697041862783177" fill="rgba(184,115,51,0.17)"/><circle cx="467" cy="258" r="2.076871406078464" fill="rgba(184,115,51,0.10)"/><circle cx="1054" cy="636" r="1.748846889238416" fill="rgba(184,115,51,0.23)"/><circle cx="74" cy="594" r="1.9642778053006364" fill="rgba(184,115,51,0.09)"/><circle cx="427" cy="753" r="1.2094454792882594" fill="rgba(184,115,51,0.20)"/><circle cx="1136" cy="449" r="1.8084659345009357" fill="rgba(184,115,51,0.20)"/><circle cx="471" cy="479" r="1.6426507409418696" fill="rgba(184,115,51,0.17)"/><circle cx="589" cy="26" r="1.5429946655704163" fill="rgba(184,115,51,0.25)"/><circle cx="346" cy="734" r="1.207497617336284" fill="rgba(184,115,51,0.15)"/><circle cx="885" cy="368" r="2.1336732363006066" fill="rgba(184,115,51,0.22)"/><circle cx="589" cy="179" r="1.2292619790223915" fill="rgba(184,115,51,0.09)"/><circle cx="460" cy="364" r="2.0207218202444905" fill="rgba(184,115,51,0.17)"/><circle cx="229" cy="114" r="1.57715096751175" fill="rgba(184,115,51,0.17)"/><circle cx="798" cy="119" r="1.7020748316770158" fill="rgba(184,115,51,0.11)"/><circle cx="755" cy="372" r="1.8298388443229312" fill="rgba(184,115,51,0.24)"/><circle cx="561" cy="64" r="2.0204251153847776" fill="rgba(184,115,51,0.08)"/><circle cx="960" cy="569" r="2.3271826751936633" fill="rgba(184,115,51,0.20)"/><circle cx="275" cy="407" r="2.152898098986169" fill="rgba(184,115,51,0.12)"/><circle cx="181" cy="585" r="1.4402501929711393" fill="rgba(184,115,51,0.09)"/><circle cx="620" cy="663" r="1.0048679741525939" fill="rgba(184,115,51,0.20)"/><circle cx="760" cy="611" r="2.0795210033288862" fill="rgba(184,115,51,0.24)"/><circle cx="413" cy="741" r="2.142943298578097" fill="rgba(184,115,51,0.16)"/><circle cx="162" cy="66" r="1.1596162341965575" fill="rgba(184,115,51,0.18)"/><circle cx="486" cy="316" r="2.2625040222587005" fill="rgba(184,115,51,0.16)"/><circle cx="183" cy="258" r="1.2983666526470996" fill="rgba(184,115,51,0.13)"/><circle cx="226" cy="409" r="1.2423235536297301" fill="rgba(184,115,51,0.24)"/><circle cx="589" cy="484" r="2.383651120927412" fill="rgba(184,115,51,0.23)"/><circle cx="767" cy="186" r="1.8984168766903435" fill="rgba(184,115,51,0.15)"/><circle cx="778" cy="383" r="1.1678015879813426" fill="rgba(184,115,51,0.13)"/><circle cx="449" cy="706" r="2.4779820684157183" fill="rgba(184,115,51,0.21)"/><circle cx="566" cy="738" r="1.3591784655070882" fill="rgba(184,115,51,0.11)"/><circle cx="166" cy="643" r="1.851035415533365" fill="rgba(184,115,51,0.07)"/><circle cx="370" cy="566" r="2.0978613922669416" fill="rgba(184,115,51,0.22)"/><circle cx="521" cy="187" r="2.4669767405160012" fill="rgba(184,115,51,0.16)"/>
</svg>