<svg xmlns="http://www.w3.org/2000/svg" viewBox="0 0 1200 800" preserveAspectRatio="xMidYMid slice">
  <polygon points="663,154 439,38 492,92" fill="rgba(184,135,51,0.010)" stroke="rgba(184,115,51,0.015)" stroke-width="0.4"/><polygon points="663,154 439,38 452,47" fill="rgba(184,93,51,0.009)" stroke="rgba(184,115,51,0.015)" stroke-width="0.4"/><polygon points="663,154 439,38 370,105" fill="rgba(184,121,51,0.022)" stroke="rgba(184,115,51,0.015)" stroke-width="0.4"/><polygon points="663,154 856,71 812,50" fill="rgba(184,117,51,0.023)" stroke="rgba(184,115,51,0.015)" stroke-width="0.4"/><polygon points="663,154 492,92 452,47" fill="rgba(184,119,51,0.025)" stroke="rgba(184,115,51,0.015)" stroke-width="0.4"/><polygon points="663,154 492,92 370,105" fill="rgba(184,119,51,0.021)" stroke="rgba(184,115,51,0.015)" stroke-width="0.4"/><polygon points="663,154 452,47 370,105" fill="rgba(184,105,51,0.016)" stroke="rgba(184,115,51,0.015)" stroke-width="0.4"/><polygon points="808,666 748,596 631,573" fill="rgba(184,134,51,0.025)" stroke="rgba(184,115,51,0.015)" stroke-width="0.4"/><polygon points="98,74 253,228 370,105" fill="rgba(184,95,51,0.025)" stroke="rgba(184,115,51,0.015)" stroke-width="0.4"/><polygon points="1097,96 856,71 812,50" fill="rgba(184,123,51,0.021)" stroke="rgba(184,115,51,0.015)" stroke-width="0.4"/><polygon points="1097,96 856,71 1140,136" fill="rgba(184,111,51,0.019)" stroke="rgba(184,115,51,0.015)" stroke-width="0.4"/><polygon points="1097,96 1193,63 1140,136" fill="rgba(184,108,51,0.024)" stroke="rgba(184,115,51,0.015)" stroke-width="0.4"/><polygon points="1097,96 1193,63 1200,0" fill="rgba(184,94,51,0.021)" stroke="rgba(184,115,51,0.015)" stroke-width="0.4"/><polygon points="1097,96 1140,136 1200,0" fill="rgba(184,116,51,0.011)" stroke="rgba(184,115,51,0.015)" stroke-width="0.4"/><polygon points="748,596 593,429 631,573" fill="rgba(184,111,51,0.012)" stroke="rgba(184,115,51,0.015)" stroke-width="0.4"/><polygon points="118,519 176,444 121,579" fill="rgba(184,121,51,0.011)" stroke="rgba(184,115,51,0.015)" stroke-width="0.4"/><polygon points="118,519 176,444 295,553" fill="rgba(184,132,51,0.017)" stroke="rgba(184,115,51,0.015)" stroke-width="0.4"/><polygon points="118,519 176,444 241,584" fill="rgba(184,125,51,0.010)" stroke="rgba(184,115,51,0.015)" stroke-width="0.4"/><polygon points="118,519 176,444 384,381" fill="rgba(184,110,51,0.021)" stroke="rgba(184,115,51,0.015)" stroke-width="0.4"/><polygon points="118,519 121,579 295,553" fill="rgba(184,112,51,0.015)" stroke="rgba(184,115,51,0.015)" stroke-width="0.4"/><polygon points="118,519 121,579 241,584" fill="rgba(184,127,51,0.021)" stroke="rgba(184,115,51,0.015)" stroke-width="0.4"/><polygon points="118,519 295,553 241,584" fill="rgba(184,94,51,0.026)" stroke="rgba(184,115,51,0.015)" stroke-width="0.4"/><polygon points="118,519 295,553 384,381" fill="rgba(184,107,51,0.026)" stroke="rgba(184,115,51,0.015)" stroke-width="0.4"/><polygon points="118,519 241,584 384,381" fill="rgba(184,132,51,0.018)" stroke="rgba(184,115,51,0.015)" stroke-width="0.4"/><polygon points="439,38 492,92 253,228" fill="rgba(184,136,51,0.009)" stroke="rgba(184,115,51,0.015)" stroke-width="0.4"/><polygon points="439,38 492,92 452,47" fill="rgba(184,131,51,0.023)" stroke="rgba(184,115,51,0.015)" stroke-width="0.4"/><polygon points="439,38 492,92 370,105" fill="rgba(184,133,51,0.021)" stroke="rgba(184,115,51,0.015)" stroke-width="0.4"/><polygon points="439,38 253,228 452,47" fill="rgba(184,108,51,0.026)" stroke="rgba(184,115,51,0.015)" stroke-width="0.4"/><polygon points="439,38 253,228 370,105" fill="rgba(184,132,51,0.024)" stroke="rgba(184,115,51,0.015)" stroke-width="0.4"/><polygon points="439,38 452,47 370,105" fill="rgba(184,119,51,0.016)" stroke="rgba(184,115,51,0.015)" stroke-width="0.4"/><polygon points="176,444 121,579 295,553" fill="rgba(184,129,51,0.016)" stroke="rgba(184,115,51,0.015)" stroke-width="0.4"/><polygon points="176,444 121,579 241,584" fill="rgba(184,93,51,0.011)" stroke="rgba(184,115,51,0.015)" stroke-width="0.4"/><polygon points="176,444 253,228 384,381" fill="rgba(184,108,51,0.013)" stroke="rgba(184,115,51,0.015)" stroke-width="0.4"/><polygon points="176,444 295,553 241,584" fill="rgba(184,105,51,0.011)" stroke="rgba(184,115,51,0.015)" stroke-width="0.4"/><polygon points="176,444 295,553 384,381" fill="rgba(184,121,51,0.017)" stroke="rgba(184,115,51,0.015)" stroke-width="0.4"/><polygon points="176,444 241,584 384,381" fill="rgba(184,118,51,0.010)" stroke="rgba(184,115,51,0.015)" stroke-width="0.4"/><polygon points="492,92 253,228 452,47" fill="rgba(184,107,51,0.017)" stroke="rgba(184,115,51,0.015)" stroke-width="0.4"/><polygon points="492,92 253,228 370,105" fill="rgba(184,117,51,0.027)" stroke="rgba(184,115,51,0.015)" stroke-width="0.4"/><polygon points="492,92 452,47 370,105" fill="rgba(184,107,51,0.027)" stroke="rgba(184,115,51,0.015)" stroke-width="0.4"/><polygon points="1128,434 1181,599 1191,584" fill="rgba(184,112,51,0.024)" stroke="rgba(184,115,51,0.015)" stroke-width="0.4"/><polygon points="121,579 295,553 241,584" fill="rgba(184,114,51,0.023)" stroke="rgba(184,115,51,0.015)" stroke-width="0.4"/><polygon points="253,228 452,47 370,105" fill="rgba(184,99,51,0.029)" stroke="rgba(184,115,51,0.015)" stroke-width="0.4"/><polygon points="253,228 370,105 384,381" fill="rgba(184,99,51,0.010)" stroke="rgba(184,115,51,0.015)" stroke-width="0.4"/><polygon points="1193,63 1140,136 1200,0" fill="rgba(184,104,51,0.013)" stroke="rgba(184,115,51,0.015)" stroke-width="0.4"/><polygon points="1181,599 1191,584 1200,800" fill="rgba(184,127,51,0.008)" stroke="rgba(184,115,51,0.015)" stroke-width="0.4"/><polygon points="295,553 241,584 384,381" fill="rgba(184,108,51,0.012)" stroke="rgba(184,115,51,0.015)" stroke-width="0.4"/>
</svg>