<svg xmlns="http://www.w3.org/2000/svg" viewBox="0 0 1800 1247" preserveAspectRatio="xMidYMid slice">
  <polygon points="23.4,13.5 0.0,27.0 -23.4,13.5 -23.4,-13.5 -0.0,-27.0 23.4,-13.5" fill="none" stroke="rgba(184,115,51,0.020)" stroke-width="0.4"/><polygon points="113.4,65.5 90.0,79.0 66.6,65.5 66.6,38.5 90.0,25.0 113.4,38.5" fill="none" stroke="rgba(184,115,51,0.024)" stroke-width="0.4"/><polygon points="203.4,13.5 180.0,27.0 156.6,13.5 156.6,-13.5 180.0,-27.0 203.4,-13.5" fill="none" stroke="rgba(184,115,51,0.028)" stroke-width="0.4"/><polygon points="293.4,65.5 270.0,79.0 246.6,65.5 246.6,38.5 270.0,25.0 293.4,38.5" fill="none" stroke="rgba(184,115,51,0.032)" stroke-width="0.4"/><polygon points="383.4,13.5 360.0,27.0 336.6,13.5 336.6,-13.5 360.0,-27.0 383.4,-13.5" fill="none" stroke="rgba(184,115,51,0.034)" stroke-width="0.4"/><polygon points="473.4,65.5 450.0,79.0 426.6,65.5 426.6,38.5 450.0,25.0 473.4,38.5" fill="none" stroke="rgba(184,115,51,0.035)" stroke-width="0.4"/><polygon points="563.4,13.5 540.0,27.0 516.6,13.5 516.6,-13.5 540.0,-27.0 563.4,-13.5" fill="none" stroke="rgba(184,115,51,0.035)" stroke-width="0.4"/><polygon points="653.4,65.5 630.0,79.0 606.6,65.5 606.6,38.5 630.0,25.0 653.4,38.5" fill="none" stroke="rgba(184,115,51,0.033)" stroke-width="0.4"/><polygon points="743.4,13.5 720.0,27.0 696.6,13.5 696.6,-13.5 720.0,-27.0 743.4,-13.5" fill="none" stroke="rgba(184,115,51,0.030)" stroke-width="0.4"/><polygon points="833.4,65.5 810.0,79.0 786.6,65.5 786.6,38.5 810.0,25.0 833.4,38.5" fill="none" stroke="rgba(184,115,51,0.026)" stroke-width="0.4"/><polygon points="923.4,13.5 900.0,27.0 876.6,13.5 876.6,-13.5 900.0,-27.0 923.4,-13.5" fill="none" stroke="rgba(184,115,51,0.022)" stroke-width="0.4"/><polygon points="1013.4,65.5 990.0,79.0 966.6,65.5 966.6,38.5 990.0,25.0 1013.4,38.5" fill="none" stroke="rgba(184,115,51,0.018)" stroke-width="0.4"/><polygon points="1103.4,13.5 1080.0,27.0 1056.6,13.5 1056.6,-13.5 1080.0,-27.0 1103.4,-13.5" fill="none" stroke="rgba(184,115,51,0.013)" stroke-width="0.4"/><polygon points="1193.4,65.5 1170.0,79.0 1146.6,65.5 1146.6,38.5 1170.0,25.0 1193.4,38.5" fill="none" stroke="rgba(184,115,51,0.010)" stroke-width="0.4"/><polygon points="1283.4,13.5 1260.0,27.0 1236.6,13.5 1236.6,-13.5 1260.0,-27.0 1283.4,-13.5" fill="none" stroke="rgba(184,115,51,0.007)" stroke-width="0.4"/><polygon points="1373.4,65.5 1350.0,79.0 1326.6,65.5 1326.6,38.5 1350.0,25.0 1373.4,38.5" fill="none" stroke="rgba(184,115,51,0.005)" stroke-width="0.4"/><polygon points="1463.4,13.5 1440.0,27.0 1416.6,13.5 1416.6,-13.5 1440.0,-27.0 1463.4,-13.5" fill="none" stroke="rgba(184,115,51,0.005)" stroke-width="0.4"/><polygon points="1553.4,65.5 1530.0,79.0 1506.6,65.5 1506.6,38.5 1530.0,25.0 1553.4,38.5" fill="none" stroke="rgba(184,115,51,0.006)" stroke-width="0.4"/><polygon points="1643.4,13.5 1620.0,27.0 1596.6,13.5 1596.6,-13.5 1620.0,-27.0 1643.4,-13.5" fill="none" stroke="rgba(184,115,51,0.008)" stroke-width="0.4"/><polygon points="1733.4,65.5 1710.0,79.0 1686.6,65.5 1686.6,38.5 1710.0,25.0 1733.4,38.5" fill="none" stroke="rgba(184,115,51,0.012)" stroke-width="0.4"/><polygon points="23.4,117.4 0.0,130.9 -23.4,117.4 -23.4,90.4 -0.0,76.9 23.4,90.4" fill="none" stroke="rgba(184,115,51,0.027)" stroke-width="0.4"/><polygon points="113.4,169.4 90.0,182.9 66.6,169.4 66.6,142.4 90.0,128.9 113.4,142.4" fill="none" stroke="rgba(184,115,51,0.031)" stroke-width="0.4"/><polygon points="203.4,117.4 180.0,130.9 156.6,117.4 156.6,90.4 180.0,76.9 203.4,90.4" fill="none" stroke="rgba(184,115,51,0.033)" stroke-width="0.4"/><polygon points="293.4,169.4 270.0,182.9 246.6,169.4 246.6,142.4 270.0,128.9 293.4,142.4" fill="none" stroke="rgba(184,115,51,0.035)" stroke-width="0.4"/><polygon points="383.4,117.4 360.0,130.9 336.6,117.4 336.6,90.4 360.0,76.9 383.4,90.4" fill="none" stroke="rgba(184,115,51,0.035)" stroke-width="0.4"/><polygon points="473.4,169.4 450.0,182.9 426.6,169.4 426.6,142.4 450.0,128.9 473.4,142.4" fill="none" stroke="rgba(184,115,51,0.034)" stroke-width="0.4"/><polygon points="563.4,117.4 540.0,130.9 516.6,117.4 516.6,90.4 540.0,76.9 563.4,90.4" fill="none" stroke="rgba(184,115,51,0.031)" stroke-width="0.4"/><polygon points="653.4,169.4 630.0,182.9 606.6,169.4 606.6,142.4 630.0,128.9 653.4,142.4" fill="none" stroke="rgba(184,115,51,0.028)" stroke-width="0.4"/><polygon points="743.4,117.4 720.0,130.9 696.6,117.4 696.6,90.4 720.0,76.9 743.4,90.4" fill="none" stroke="rgba(184,115,51,0.024)" stroke-width="0.4"/><polygon points="833.4,169.4 810.0,182.9 786.6,169.4 786.6,142.4 810.0,128.9 833.4,142.4" fill="none" stroke="rgba(184,115,51,0.019)" stroke-width="0.4"/><polygon points="923.4,117.4 900.0,130.9 876.6,117.4 876.6,90.4 900.0,76.9 923.4,90.4" fill="none" stroke="rgba(184,115,51,0.015)" stroke-width="0.4"/><polygon points="1013.4,169.4 990.0,182.9 966.6,169.4 966.6,142.4 990.0,128.9 1013.4,142.4" fill="none" stroke="rgba(184,115,51,0.011)" stroke-width="0.4"/><polygon points="1103.4,117.4 1080.0,130.9 1056.6,117.4 1056.6,90.4 1080.0,76.9 1103.4,90.4" fill="none" stroke="rgba(184,115,51,0.008)" stroke-width="0.4"/><polygon points="1193.4,169.4 1170.0,182.9 1146.6,169.4 1146.6,142.4 1170.0,128.9 1193.4,142.4" fill="none" stroke="rgba(184,115,51,0.006)" stroke-width="0.4"/><polygon points="1283.4,117.4 1260.0,130.9 1236.6,117.4 1236.6,90.4 1260.0,76.9 1283.4,90.4" fill="none" stroke="rgba(184,115,51,0.005)" stroke-width="0.4"/><polygon points="1373.4,169.4 1350.0,182.9 1326.6,169.4 1326.6,142.4 1350.0,128.9 1373.4,142.4" fill="none" stroke="rgba(184,115,51,0.006)" stroke-width="0.4"/><polygon points="1463.4,117.4 1440.0,130.9 1416.6,117.4 1416.6,90.4 1440.0,76.9 1463.4,90.4" fill="none" stroke="rgba(184,115,51,0.008)" stroke-width="0.4"/><polygon points="1553.4,169.4 1530.0,182.9 1506.6,169.4 1506.6,142.4 1530.0,128.9 1553.4,142.4" fill="none" stroke="rgba(184,115,51,0.011)" stroke-width="0.4"/><polygon points="1643.4,117.4 1620.0,130.9 1596.6,117.4 1596.6,90.4 1620.0,76.9 1643.4,90.4" fill="none" stroke="rgba(184,115,51,0.014)" stroke-width="0.4"/><polygon points="1733.4,169.4 1710.0,182.9 1686.6,169.4 1686.6,142.4 1710.0,128.9 1733.4,142.4" fill="none" stroke="rgba(184,115,51,0.019)" stroke-width="0.4"/><polygon points="23.4,221.3 0.0,234.8 -23.4,221.3 -23.4,194.3 -0.0,180.8 23.4,194.3" fill="none" stroke="rgba(184,115,51,0.033)" stroke-width="0.4"/><polygon points="113.4,273.3 90.0,286.8 66.6,273.3 66.6,246.3 90.0,232.8 113.4,246.3" fill="none" stroke="rgba(184,115,51,0.034)" stroke-width="0.4"/><polygon points="203.4,221.3 180.0,234.8 156.6,221.3 156.6,194.3 180.0,180.8 203.4,194.3" fill="none" stroke="rgba(184,115,51,0.035)" stroke-width="0.4"/><polygon points="293.4,273.3 270.0,286.8 246.6,273.3 246.6,246.3 270.0,232.8 293.4,246.3" fill="none" stroke="rgba(184,115,51,0.034)" stroke-width="0.4"/><polygon points="383.4,221.3 360.0,234.8 336.6,221.3 336.6,194.3 360.0,180.8 383.4,194.3" fill="none" stroke="rgba(184,115,51,0.032)" stroke-width="0.4"/><polygon points="473.4,273.3 450.0,286.8 426.6,273.3 426.6,246.3 450.0,232.8 473.4,246.3" fill="none" stroke="rgba(184,115,51,0.029)" stroke-width="0.4"/><polygon points="563.4,221.3 540.0,234.8 516.6,221.3 516.6,194.3 540.0,180.8 563.4,194.3" fill="none" stroke="rgba(184,115,51,0.025)" stroke-width="0.4"/><polygon points="653.4,273.3 630.0,286.8 606.6,273.3 606.6,246.3 630.0,232.8 653.4,246.3" fill="none" stroke="rgba(184,115,51,0.021)" stroke-width="0.4"/><polygon points="743.4,221.3 720.0,234.8 696.6,221.3 696.6,194.3 720.0,180.8 743.4,194.3" fill="none" stroke="rgba(184,115,51,0.016)" stroke-width="0.4"/><polygon points="833.4,273.3 810.0,286.8 786.6,273.3 786.6,246.3 810.0,232.8 833.4,246.3" fill="none" stroke="rgba(184,115,51,0.012)" stroke-width="0.4"/><polygon points="923.4,221.3 900.0,234.8 876.6,221.3 876.6,194.3 900.0,180.8 923.4,194.3" fill="none" stroke="rgba(184,115,51,0.009)" stroke-width="0.4"/><polygon points="1013.4,273.3 990.0,286.8 966.6,273.3 966.6,246.3 990.0,232.8 1013.4,246.3" fill="none" stroke="rgba(184,115,51,0.006)" stroke-width="0.4"/><polygon points="1103.4,221.3 1080.0,234.8 1056.6,221.3 1056.6,194.3 1080.0,180.8 1103.4,194.3" fill="none" stroke="rgba(184,115,51,0.005)" stroke-width="0.4"/><polygon points="1193.4,273.3 1170.0,286.8 1146.6,273.3 1146.6,246.3 1170.0,232.8 1193.4,246.3" fill="none" stroke="rgba(184,115,51,0.005)" stroke-width="0.4"/><polygon points="1283.4,221.3 1260.0,234.8 1236.6,221.3 1236.6,194.3 1260.0,180.8 1283.4,194.3" fill="none" stroke="rgba(184,115,51,0.007)" stroke-width="0.4"/><polygon points="1373.4,273.3 1350.0,286.8 1326.6,273.3 1326.6,246.3 1350.0,232.8 1373.4,246.3" fill="none" stroke="rgba(184,115,51,0.009)" stroke-width="0.4"/><polygon points="1463.4,221.3 1440.0,234.8 1416.6,221.3 1416.6,194.3 1440.0,180.8 1463.4,194.3" fill="none" stroke="rgba(184,115,51,0.013)" stroke-width="0.4"/><polygon points="1553.4,273.3 1530.0,286.8 1506.6,273.3 1506.6,246.3 1530.0,232.8 1553.4,246.3" fill="none" stroke="rgba(184,115,51,0.017)" stroke-width="0.4"/><polygon points="1643.4,221.3 1620.0,234.8 1596.6,221.3 1596.6,194.3 1620.0,180.8 1643.4,194.3" fill="none" stroke="rgba(184,115,51,0.022)" stroke-width="0.4"/><polygon points="1733.4,273.3 1710.0,286.8 1686.6,273.3 1686.6,246.3 1710.0,232.8 1733.4,246.3" fill="none" stroke="rgba(184,115,51,0.026)" stroke-width="0.4"/><polygon points="23.4,325.3 0.0,338.8 -23.4,325.3 -23.4,298.3 -0.0,284.8 23.4,298.3" fill="none" stroke="rgba(184,115,51,0.035)" stroke-width="0.4"/><polygon points="113.4,377.2 90.0,390.7 66.6,377.2 66.6,350.2 90.0,336.7 113.4,350.2" fill="none" stroke="rgba(184,115,51,0.035)" stroke-width="0.4"/><polygon points="203.4,325.3 180.0,338.8 156.6,325.3 156.6,298.3 180.0,284.8 203.4,298.3" fill="none" stroke="rgba(184,115,51,0.033)" stroke-width="0.4"/><polygon points="293.4,377.2 270.0,390.7 246.6,377.2 246.6,350.2 270.0,336.7 293.4,350.2" fill="none" stroke="rgba(184,115,51,0.030)" stroke-width="0.4"/><polygon points="383.4,325.3 360.0,338.8 336.6,325.3 336.6,298.3 360.0,284.8 383.4,298.3" fill="none" stroke="rgba(184,115,51,0.026)" stroke-width="0.4"/><polygon points="473.4,377.2 450.0,390.7 426.6,377.2 426.6,350.2 450.0,336.7 473.4,350.2" fill="none" stroke="rgba(184,115,51,0.022)" stroke-width="0.4"/><polygon points="563.4,325.3 540.0,338.8 516.6,325.3 516.6,298.3 540.0,284.8 563.4,298.3" fill="none" stroke="rgba(184,115,51,0.018)" stroke-width="0.4"/><polygon points="653.4,377.2 630.0,390.7 606.6,377.2 606.6,350.2 630.0,336.7 653.4,350.2" fill="none" stroke="rgba(184,115,51,0.013)" stroke-width="0.4"/><polygon points="743.4,325.3 720.0,338.8 696.6,325.3 696.6,298.3 720.0,284.8 743.4,298.3" fill="none" stroke="rgba(184,115,51,0.010)" stroke-width="0.4"/><polygon points="833.4,377.2 810.0,390.7 786.6,377.2 786.6,350.2 810.0,336.7 833.4,350.2" fill="none" stroke="rgba(184,115,51,0.007)" stroke-width="0.4"/><polygon points="923.4,325.3 900.0,338.8 876.6,325.3 876.6,298.3 900.0,284.8 923.4,298.3" fill="none" stroke="rgba(184,115,51,0.005)" stroke-width="0.4"/><polygon points="1013.4,377.2 990.0,390.7 966.6,377.2 966.6,350.2 990.0,336.7 1013.4,350.2" fill="none" stroke="rgba(184,115,51,0.005)" stroke-width="0.4"/><polygon points="1103.4,325.3 1080.0,338.8 1056.6,325.3 1056.6,298.3 1080.0,284.8 1103.4,298.3" fill="none" stroke="rgba(184,115,51,0.006)" stroke-width="0.4"/><polygon points="1193.4,377.2 1170.0,390.7 1146.6,377.2 1146.6,350.2 1170.0,336.7 1193.4,350.2" fill="none" stroke="rgba(184,115,51,0.008)" stroke-width="0.4"/><polygon points="1283.4,325.3 1260.0,338.8 1236.6,325.3 1236.6,298.3 1260.0,284.8 1283.4,298.3" fill="none" stroke="rgba(184,115,51,0.012)" stroke-width="0.4"/><polygon points="1373.4,377.2 1350.0,390.7 1326.6,377.2 1326.6,350.2 1350.0,336.7 1373.4,350.2" fill="none" stroke="rgba(184,115,51,0.016)" stroke-width="0.4"/><polygon points="1463.4,325.3 1440.0,338.8 1416.6,325.3 1416.6,298.3 1440.0,284.8 1463.4,298.3" fill="none" stroke="rgba(184,115,51,0.020)" stroke-width="0.4"/><polygon points="1553.4,377.2 1530.0,390.7 1506.6,377.2 1506.6,350.2 1530.0,336.7 1553.4,350.2" fill="none" stroke="rgba(184,115,51,0.025)" stroke-width="0.4"/><polygon points="1643.4,325.3 1620.0,338.8 1596.6,325.3 1596.6,298.3 1620.0,284.8 1643.4,298.3" fill="none" stroke="rgba(184,115,51,0.029)" stroke-width="0.4"/><polygon points="1733.4,377.2 1710.0,390.7 1686.6,377.2 1686.6,350.2 1710.0,336.7 1733.4,350.2" fill="none" stroke="rgba(184,115,51,0.032)" stroke-width="0.4"/><polygon points="23.4,429.2 0.0,442.7 -23.4,429.2 -23.4,402.2 -0.0,388.7 23.4,402.2" fill="none" stroke="rgba(184,115,51,0.034)" stroke-width="0.4"/><polygon points="113.4,481.2 90.0,494.7 66.6,481.2 66.6,454.2 90.0,440.7 113.4,454.2" fill="none" stroke="rgba(184,115,51,0.031)" stroke-width="0.4"/><polygon points="203.4,429.2 180.0,442.7 156.6,429.2 156.6,402.2 180.0,388.7 203.4,402.2" fill="none" stroke="rgba(184,115,51,0.028)" stroke-width="0.4"/><polygon points="293.4,481.2 270.0,494.7 246.6,481.2 246.6,454.2 270.0,440.7 293.4,454.2" fill="none" stroke="rgba(184,115,51,0.024)" stroke-width="0.4"/><polygon points="383.4,429.2 360.0,442.7 336.6,429.2 336.6,402.2 360.0,388.7 383.4,402.2" fill="none" stroke="rgba(184,115,51,0.019)" stroke-width="0.4"/><polygon points="473.4,481.2 450.0,494.7 426.6,481.2 426.6,454.2 450.0,440.7 473.4,454.2" fill="none" stroke="rgba(184,115,51,0.015)" stroke-width="0.4"/><polygon points="563.4,429.2 540.0,442.7 516.6,429.2 516.6,402.2 540.0,388.7 563.4,402.2" fill="none" stroke="rgba(184,115,51,0.011)" stroke-width="0.4"/><polygon points="653.4,481.2 630.0,494.7 606.6,481.2 606.6,454.2 630.0,440.7 653.4,454.2" fill="none" stroke="rgba(184,115,51,0.008)" stroke-width="0.4"/><polygon points="743.4,429.2 720.0,442.7 696.6,429.2 696.6,402.2 720.0,388.7 743.4,402.2" fill="none" stroke="rgba(184,115,51,0.006)" stroke-width="0.4"/><polygon points="833.4,481.2 810.0,494.7 786.6,481.2 786.6,454.2 810.0,440.7 833.4,454.2" fill="none" stroke="rgba(184,115,51,0.005)" stroke-width="0.4"/><polygon points="923.4,429.2 900.0,442.7 876.6,429.2 876.6,402.2 900.0,388.7 923.4,402.2" fill="none" stroke="rgba(184,115,51,0.006)" stroke-width="0.4"/><polygon points="1013.4,481.2 990.0,494.7 966.6,481.2 966.6,454.2 990.0,440.7 1013.4,454.2" fill="none" stroke="rgba(184,115,51,0.008)" stroke-width="0.4"/><polygon points="1103.4,429.2 1080.0,442.7 1056.6,429.2 1056.6,402.2 1080.0,388.7 1103.4,402.2" fill="none" stroke="rgba(184,115,51,0.011)" stroke-width="0.4"/><polygon points="1193.4,481.2 1170.0,494.7 1146.6,481.2 1146.6,454.2 1170.0,440.7 1193.4,454.2" fill="none" stroke="rgba(184,115,51,0.014)" stroke-width="0.4"/><polygon points="1283.4,429.2 1260.0,442.7 1236.6,429.2 1236.6,402.2 1260.0,388.7 1283.4,402.2" fill="none" stroke="rgba(184,115,51,0.019)" stroke-width="0.4"/><polygon points="1373.4,481.2 1350.0,494.7 1326.6,481.2 1326.6,454.2 1350.0,440.7 1373.4,454.2" fill="none" stroke="rgba(184,115,51,0.023)" stroke-width="0.4"/><polygon points="1463.4,429.2 1440.0,442.7 1416.6,429.2 1416.6,402.2 1440.0,388.7 1463.4,402.2" fill="none" stroke="rgba(184,115,51,0.027)" stroke-width="0.4"/><polygon points="1553.4,481.2 1530.0,494.7 1506.6,481.2 1506.6,454.2 1530.0,440.7 1553.4,454.2" fill="none" stroke="rgba(184,115,51,0.031)" stroke-width="0.4"/><polygon points="1643.4,429.2 1620.0,442.7 1596.6,429.2 1596.6,402.2 1620.0,388.7 1643.4,402.2" fill="none" stroke="rgba(184,115,51,0.033)" stroke-width="0.4"/><polygon points="1733.4,481.2 1710.0,494.7 1686.6,481.2 1686.6,454.2 1710.0,440.7 1733.4,454.2" fill="none" stroke="rgba(184,115,51,0.035)" stroke-width="0.4"/><polygon points="23.4,533.1 0.0,546.6 -23.4,533.1 -23.4,506.1 -0.0,492.6 23.4,506.1" fill="none" stroke="rgba(184,115,51,0.029)" stroke-width="0.4"/><polygon points="113.4,585.1 90.0,598.6 66.6,585.1 66.6,558.1 90.0,544.6 113.4,558.1" fill="none" stroke="rgba(184,115,51,0.025)" stroke-width="0.4"/><polygon points="203.4,533.1 180.0,546.6 156.6,533.1 156.6,506.1 180.0,492.6 203.4,506.1" fill="none" stroke="rgba(184,115,51,0.021)" stroke-width="0.4"/><polygon points="293.4,585.1 270.0,598.6 246.6,585.1 246.6,558.1 270.0,544.6 293.4,558.1" fill="none" stroke="rgba(184,115,51,0.016)" stroke-width="0.4"/><polygon points="383.4,533.1 360.0,546.6 336.6,533.1 336.6,506.1 360.0,492.6 383.4,506.1" fill="none" stroke="rgba(184,115,51,0.012)" stroke-width="0.4"/><polygon points="473.4,585.1 450.0,598.6 426.6,585.1 426.6,558.1 450.0,544.6 473.4,558.1" fill="none" stroke="rgba(184,115,51,0.009)" stroke-width="0.4"/><polygon points="563.4,533.1 540.0,546.6 516.6,533.1 516.6,506.1 540.0,492.6 563.4,506.1" fill="none" stroke="rgba(184,115,51,0.006)" stroke-width="0.4"/><polygon points="653.4,585.1 630.0,598.6 606.6,585.1 606.6,558.1 630.0,544.6 653.4,558.1" fill="none" stroke="rgba(184,115,51,0.005)" stroke-width="0.4"/><polygon points="743.4,533.1 720.0,546.6 696.6,533.1 696.6,506.1 720.0,492.6 743.4,506.1" fill="none" stroke="rgba(184,115,51,0.005)" stroke-width="0.4"/><polygon points="833.4,585.1 810.0,598.6 786.6,585.1 786.6,558.1 810.0,544.6 833.4,558.1" fill="none" stroke="rgba(184,115,51,0.007)" stroke-width="0.4"/><polygon points="923.4,533.1 900.0,546.6 876.6,533.1 876.6,506.1 900.0,492.6 923.4,506.1" fill="none" stroke="rgba(184,115,51,0.009)" stroke-width="0.4"/><polygon points="1013.4,585.1 990.0,598.6 966.6,585.1 966.6,558.1 990.0,544.6 1013.4,558.1" fill="none" stroke="rgba(184,115,51,0.013)" stroke-width="0.4"/><polygon points="1103.4,533.1 1080.0,546.6 1056.6,533.1 1056.6,506.1 1080.0,492.6 1103.4,506.1" fill="none" stroke="rgba(184,115,51,0.017)" stroke-width="0.4"/><polygon points="1193.4,585.1 1170.0,598.6 1146.6,585.1 1146.6,558.1 1170.0,544.6 1193.4,558.1" fill="none" stroke="rgba(184,115,51,0.022)" stroke-width="0.4"/><polygon points="1283.4,533.1 1260.0,546.6 1236.6,533.1 1236.6,506.1 1260.0,492.6 1283.4,506.1" fill="none" stroke="rgba(184,115,51,0.026)" stroke-width="0.4"/><polygon points="1373.4,585.1 1350.0,598.6 1326.6,585.1 1326.6,558.1 1350.0,544.6 1373.4,558.1" fill="none" stroke="rgba(184,115,51,0.030)" stroke-width="0.4"/><polygon points="1463.4,533.1 1440.0,546.6 1416.6,533.1 1416.6,506.1 1440.0,492.6 1463.4,506.1" fill="none" stroke="rgba(184,115,51,0.033)" stroke-width="0.4"/><polygon points="1553.4,585.1 1530.0,598.6 1506.6,585.1 1506.6,558.1 1530.0,544.6 1553.4,558.1" fill="none" stroke="rgba(184,115,51,0.035)" stroke-width="0.4"/><polygon points="1643.4,533.1 1620.0,546.6 1596.6,533.1 1596.6,506.1 1620.0,492.6 1643.4,506.1" fill="none" stroke="rgba(184,115,51,0.035)" stroke-width="0.4"/><polygon points="1733.4,585.1 1710.0,598.6 1686.6,585.1 1686.6,558.1 1710.0,544.6 1733.4,558.1" fill="none" stroke="rgba(184,115,51,0.034)" stroke-width="0.4"/><polygon points="23.4,637.0 0.0,650.5 -23.4,637.0 -23.4,610.0 -0.0,596.5 23.4,610.0" fill="none" stroke="rgba(184,115,51,0.022)" stroke-width="0.4"/><polygon points="113.4,689.0 90.0,702.5 66.6,689.0 66.6,662.0 90.0,648.5 113.4,662.0" fill="none" stroke="rgba(184,115,51,0.018)" stroke-width="0.4"/><polygon points="203.4,637.0 180.0,650.5 156.6,637.0 156.6,610.0 180.0,596.5 203.4,610.0" fill="none" stroke="rgba(184,115,51,0.013)" stroke-width="0.4"/><polygon points="293.4,689.0 270.0,702.5 246.6,689.0 246.6,662.0 270.0,648.5 293.4,662.0" fill="none" stroke="rgba(184,115,51,0.010)" stroke-width="0.4"/><polygon points="383.4,637.0 360.0,650.5 336.6,637.0 336.6,610.0 360.0,596.5 383.4,610.0" fill="none" stroke="rgba(184,115,51,0.007)" stroke-width="0.4"/><polygon points="473.4,689.0 450.0,702.5 426.6,689.0 426.6,662.0 450.0,648.5 473.4,662.0" fill="none" stroke="rgba(184,115,51,0.005)" stroke-width="0.4"/><polygon points="563.4,637.0 540.0,650.5 516.6,637.0 516.6,610.0 540.0,596.5 563.4,610.0" fill="none" stroke="rgba(184,115,51,0.005)" stroke-width="0.4"/><polygon points="653.4,689.0 630.0,702.5 606.6,689.0 606.6,662.0 630.0,648.5 653.4,662.0" fill="none" stroke="rgba(184,115,51,0.006)" stroke-width="0.4"/><polygon points="743.4,637.0 720.0,650.5 696.6,637.0 696.6,610.0 720.0,596.5 743.4,610.0" fill="none" stroke="rgba(184,115,51,0.008)" stroke-width="0.4"/><polygon points="833.4,689.0 810.0,702.5 786.6,689.0 786.6,662.0 810.0,648.5 833.4,662.0" fill="none" stroke="rgba(184,115,51,0.012)" stroke-width="0.4"/><polygon points="923.4,637.0 900.0,650.5 876.6,637.0 876.6,610.0 900.0,596.5 923.4,610.0" fill="none" stroke="rgba(184,115,51,0.016)" stroke-width="0.4"/><polygon points="1013.4,689.0 990.0,702.5 966.6,689.0 966.6,662.0 990.0,648.5 1013.4,662.0" fill="none" stroke="rgba(184,115,51,0.020)" stroke-width="0.4"/><polygon points="1103.4,637.0 1080.0,650.5 1056.6,637.0 1056.6,610.0 1080.0,596.5 1103.4,610.0" fill="none" stroke="rgba(184,115,51,0.025)" stroke-width="0.4"/><polygon points="1193.4,689.0 1170.0,702.5 1146.6,689.0 1146.6,662.0 1170.0,648.5 1193.4,662.0" fill="none" stroke="rgba(184,115,51,0.029)" stroke-width="0.4"/><polygon points="1283.4,637.0 1260.0,650.5 1236.6,637.0 1236.6,610.0 1260.0,596.5 1283.4,610.0" fill="none" stroke="rgba(184,115,51,0.032)" stroke-width="0.4"/><polygon points="1373.4,689.0 1350.0,702.5 1326.6,689.0 1326.6,662.0 1350.0,648.5 1373.4,662.0" fill="none" stroke="rgba(184,115,51,0.034)" stroke-width="0.4"/><polygon points="1463.4,637.0 1440.0,650.5 1416.6,637.0 1416.6,610.0 1440.0,596.5 1463.4,610.0" fill="none" stroke="rgba(184,115,51,0.035)" stroke-width="0.4"/><polygon points="1553.4,689.0 1530.0,702.5 1506.6,689.0 1506.6,662.0 1530.0,648.5 1553.4,662.0" fill="none" stroke="rgba(184,115,51,0.035)" stroke-width="0.4"/><polygon points="1643.4,637.0 1620.0,650.5 1596.6,637.0 1596.6,610.0 1620.0,596.5 1643.4,610.0" fill="none" stroke="rgba(184,115,51,0.033)" stroke-width="0.4"/><polygon points="1733.4,689.0 1710.0,702.5 1686.6,689.0 1686.6,662.0 1710.0,648.5 1733.4,662.0" fill="none" stroke="rgba(184,115,51,0.030)" stroke-width="0.4"/><polygon points="23.4,741.0 0.0,754.5 -23.4,741.0 -23.4,714.0 -0.0,700.5 23.4,714.0" fill="none" stroke="rgba(184,115,51,0.015)" stroke-width="0.4"/><polygon points="113.4,792.9 90.0,806.4 66.6,792.9 66.6,765.9 90.0,752.4 113.4,765.9" fill="none" stroke="rgba(184,115,51,0.011)" stroke-width="0.4"/><polygon points="203.4,741.0 180.0,754.5 156.6,741.0 156.6,714.0 180.0,700.5 203.4,714.0" fill="none" stroke="rgba(184,115,51,0.008)" stroke-width="0.4"/><polygon points="293.4,792.9 270.0,806.4 246.6,792.9 246.6,765.9 270.0,752.4 293.4,765.9" fill="none" stroke="rgba(184,115,51,0.006)" stroke-width="0.4"/><polygon points="383.4,741.0 360.0,754.5 336.6,741.0 336.6,714.0 360.0,700.5 383.4,714.0" fill="none" stroke="rgba(184,115,51,0.005)" stroke-width="0.4"/><polygon points="473.4,792.9 450.0,806.4 426.6,792.9 426.6,765.9 450.0,752.4 473.4,765.9" fill="none" stroke="rgba(184,115,51,0.006)" stroke-width="0.4"/><polygon points="563.4,741.0 540.0,754.5 516.6,741.0 516.6,714.0 540.0,700.5 563.4,714.0" fill="none" stroke="rgba(184,115,51,0.008)" stroke-width="0.4"/><polygon points="653.4,792.9 630.0,806.4 606.6,792.9 606.6,765.9 630.0,752.4 653.4,765.9" fill="none" stroke="rgba(184,115,51,0.011)" stroke-width="0.4"/><polygon points="743.4,741.0 720.0,754.5 696.6,741.0 696.6,714.0 720.0,700.5 743.4,714.0" fill="none" stroke="rgba(184,115,51,0.014)" stroke-width="0.4"/><polygon points="833.4,792.9 810.0,806.4 786.6,792.9 786.6,765.9 810.0,752.4 833.4,765.9" fill="none" stroke="rgba(184,115,51,0.019)" stroke-width="0.4"/><polygon points="923.4,741.0 900.0,754.5 876.6,741.0 876.6,714.0 900.0,700.5 923.4,714.0" fill="none" stroke="rgba(184,115,51,0.023)" stroke-width="0.4"/><polygon points="1013.4,792.9 990.0,806.4 966.6,792.9 966.6,765.9 990.0,752.4 1013.4,765.9" fill="none" stroke="rgba(184,115,51,0.027)" stroke-width="0.4"/><polygon points="1103.4,741.0 1080.0,754.5 1056.6,741.0 1056.6,714.0 1080.0,700.5 1103.4,714.0" fill="none" stroke="rgba(184,115,51,0.031)" stroke-width="0.4"/><polygon points="1193.4,792.9 1170.0,806.4 1146.6,792.9 1146.6,765.9 1170.0,752.4 1193.4,765.9" fill="none" stroke="rgba(184,115,51,0.033)" stroke-width="0.4"/><polygon points="1283.4,741.0 1260.0,754.5 1236.6,741.0 1236.6,714.0 1260.0,700.5 1283.4,714.0" fill="none" stroke="rgba(184,115,51,0.035)" stroke-width="0.4"/><polygon points="1373.4,792.9 1350.0,806.4 1326.6,792.9 1326.6,765.9 1350.0,752.4 1373.4,765.9" fill="none" stroke="rgba(184,115,51,0.035)" stroke-width="0.4"/><polygon points="1463.4,741.0 1440.0,754.5 1416.6,741.0 1416.6,714.0 1440.0,700.5 1463.4,714.0" fill="none" stroke="rgba(184,115,51,0.034)" stroke-width="0.4"/><polygon points="1553.4,792.9 1530.0,806.4 1506.6,792.9 1506.6,765.9 1530.0,752.4 1553.4,765.9" fill="none" stroke="rgba(184,115,51,0.031)" stroke-width="0.4"/><polygon points="1643.4,741.0 1620.0,754.5 1596.6,741.0 1596.6,714.0 1620.0,700.5 1643.4,714.0" fill="none" stroke="rgba(184,115,51,0.028)" stroke-width="0.4"/><polygon points="1733.4,792.9 1710.0,806.4 1686.6,792.9 1686.6,765.9 1710.0,752.4 1733.4,765.9" fill="none" stroke="rgba(184,115,51,0.023)" stroke-width="0.4"/><polygon points="23.4,844.9 0.0,858.4 -23.4,844.9 -23.4,817.9 -0.0,804.4 23.4,817.9" fill="none" stroke="rgba(184,115,51,0.009)" stroke-width="0.4"/><polygon points="113.4,896.8 90.0,910.3 66.6,896.8 66.6,869.8 90.0,856.3 113.4,869.8" fill="none" stroke="rgba(184,115,51,0.006)" stroke-width="0.4"/><polygon points="203.4,844.9 180.0,858.4 156.6,844.9 156.6,817.9 180.0,804.4 203.4,817.9" fill="none" stroke="rgba(184,115,51,0.005)" stroke-width="0.4"/><polygon points="293.4,896.8 270.0,910.3 246.6,896.8 246.6,869.8 270.0,856.3 293.4,869.8" fill="none" stroke="rgba(184,115,51,0.005)" stroke-width="0.4"/><polygon points="383.4,844.9 360.0,858.4 336.6,844.9 336.6,817.9 360.0,804.4 383.4,817.9" fill="none" stroke="rgba(184,115,51,0.007)" stroke-width="0.4"/><polygon points="473.4,896.8 450.0,910.3 426.6,896.8 426.6,869.8 450.0,856.3 473.4,869.8" fill="none" stroke="rgba(184,115,51,0.009)" stroke-width="0.4"/><polygon points="563.4,844.9 540.0,858.4 516.6,844.9 516.6,817.9 540.0,804.4 563.4,817.9" fill="none" stroke="rgba(184,115,51,0.013)" stroke-width="0.4"/><polygon points="653.4,896.8 630.0,910.3 606.6,896.8 606.6,869.8 630.0,856.3 653.4,869.8" fill="none" stroke="rgba(184,115,51,0.017)" stroke-width="0.4"/><polygon points="743.4,844.9 720.0,858.4 696.6,844.9 696.6,817.9 720.0,804.4 743.4,817.9" fill="none" stroke="rgba(184,115,51,0.022)" stroke-width="0.4"/><polygon points="833.4,896.8 810.0,910.3 786.6,896.8 786.6,869.8 810.0,856.3 833.4,869.8" fill="none" stroke="rgba(184,115,51,0.026)" stroke-width="0.4"/><polygon points="923.4,844.9 900.0,858.4 876.6,844.9 876.6,817.9 900.0,804.4 923.4,817.9" fill="none" stroke="rgba(184,115,51,0.030)" stroke-width="0.4"/><polygon points="1013.4,896.8 990.0,910.3 966.6,896.8 966.6,869.8 990.0,856.3 1013.4,869.8" fill="none" stroke="rgba(184,115,51,0.033)" stroke-width="0.4"/><polygon points="1103.4,844.9 1080.0,858.4 1056.6,844.9 1056.6,817.9 1080.0,804.4 1103.4,817.9" fill="none" stroke="rgba(184,115,51,0.035)" stroke-width="0.4"/><polygon points="1193.4,896.8 1170.0,910.3 1146.6,896.8 1146.6,869.8 1170.0,856.3 1193.4,869.8" fill="none" stroke="rgba(184,115,51,0.035)" stroke-width="0.4"/><polygon points="1283.4,844.9 1260.0,858.4 1236.6,844.9 1236.6,817.9 1260.0,804.4 1283.4,817.9" fill="none" stroke="rgba(184,115,51,0.034)" stroke-width="0.4"/><polygon points="1373.4,896.8 1350.0,910.3 1326.6,896.8 1326.6,869.8 1350.0,856.3 1373.4,869.8" fill="none" stroke="rgba(184,115,51,0.032)" stroke-width="0.4"/><polygon points="1463.4,844.9 1440.0,858.4 1416.6,844.9 1416.6,817.9 1440.0,804.4 1463.4,817.9" fill="none" stroke="rgba(184,115,51,0.029)" stroke-width="0.4"/><polygon points="1553.4,896.8 1530.0,910.3 1506.6,896.8 1506.6,869.8 1530.0,856.3 1553.4,869.8" fill="none" stroke="rgba(184,115,51,0.025)" stroke-width="0.4"/><polygon points="1643.4,844.9 1620.0,858.4 1596.6,844.9 1596.6,817.9 1620.0,804.4 1643.4,817.9" fill="none" stroke="rgba(184,115,51,0.020)" stroke-width="0.4"/><polygon points="1733.4,896.8 1710.0,910.3 1686.6,896.8 1686.6,869.8 1710.0,856.3 1733.4,869.8" fill="none" stroke="rgba(184,115,51,0.016)" stroke-width="0.4"/><polygon points="23.4,948.8 0.0,962.3 -23.4,948.8 -23.4,921.8 -0.0,908.3 23.4,921.8" fill="none" stroke="rgba(184,115,51,0.005)" stroke-width="0.4"/><polygon points="113.4,1000.8 90.0,1014.3 66.6,1000.8 66.6,973.8 90.0,960.3 113.4,973.8" fill="none" stroke="rgba(184,115,51,0.005)" stroke-width="0.4"/><polygon points="203.4,948.8 180.0,962.3 156.6,948.8 156.6,921.8 180.0,908.3 203.4,921.8" fill="none" stroke="rgba(184,115,51,0.006)" stroke-width="0.4"/><polygon points="293.4,1000.8 270.0,1014.3 246.6,1000.8 246.6,973.8 270.0,960.3 293.4,973.8" fill="none" stroke="rgba(184,115,51,0.008)" stroke-width="0.4"/><polygon points="383.4,948.8 360.0,962.3 336.6,948.8 336.6,921.8 360.0,908.3 383.4,921.8" fill="none" stroke="rgba(184,115,51,0.012)" stroke-width="0.4"/><polygon points="473.4,1000.8 450.0,1014.3 426.6,1000.8 426.6,973.8 450.0,960.3 473.4,973.8" fill="none" stroke="rgba(184,115,51,0.016)" stroke-width="0.4"/><polygon points="563.4,948.8 540.0,962.3 516.6,948.8 516.6,921.8 540.0,908.3 563.4,921.8" fill="none" stroke="rgba(184,115,51,0.020)" stroke-width="0.4"/><polygon points="653.4,1000.8 630.0,1014.3 606.6,1000.8 606.6,973.8 630.0,960.3 653.4,973.8" fill="none" stroke="rgba(184,115,51,0.025)" stroke-width="0.4"/><polygon points="743.4,948.8 720.0,962.3 696.6,948.8 696.6,921.8 720.0,908.3 743.4,921.8" fill="none" stroke="rgba(184,115,51,0.029)" stroke-width="0.4"/><polygon points="833.4,1000.8 810.0,1014.3 786.6,1000.8 786.6,973.8 810.0,960.3 833.4,973.8" fill="none" stroke="rgba(184,115,51,0.032)" stroke-width="0.4"/><polygon points="923.4,948.8 900.0,962.3 876.6,948.8 876.6,921.8 900.0,908.3 923.4,921.8" fill="none" stroke="rgba(184,115,51,0.034)" stroke-width="0.4"/><polygon points="1013.4,1000.8 990.0,1014.3 966.6,1000.8 966.6,973.8 990.0,960.3 1013.4,973.8" fill="none" stroke="rgba(184,115,51,0.035)" stroke-width="0.4"/><polygon points="1103.4,948.8 1080.0,962.3 1056.6,948.8 1056.6,921.8 1080.0,908.3 1103.4,921.8" fill="none" stroke="rgba(184,115,51,0.035)" stroke-width="0.4"/><polygon points="1193.4,1000.8 1170.0,1014.3 1146.6,1000.8 1146.6,973.8 1170.0,960.3 1193.4,973.8" fill="none" stroke="rgba(184,115,51,0.033)" stroke-width="0.4"/><polygon points="1283.4,948.8 1260.0,962.3 1236.6,948.8 1236.6,921.8 1260.0,908.3 1283.4,921.8" fill="none" stroke="rgba(184,115,51,0.030)" stroke-width="0.4"/><polygon points="1373.4,1000.8 1350.0,1014.3 1326.6,1000.8 1326.6,973.8 1350.0,960.3 1373.4,973.8" fill="none" stroke="rgba(184,115,51,0.026)" stroke-width="0.4"/><polygon points="1463.4,948.8 1440.0,962.3 1416.6,948.8 1416.6,921.8 1440.0,908.3 1463.4,921.8" fill="none" stroke="rgba(184,115,51,0.022)" stroke-width="0.4"/><polygon points="1553.4,1000.8 1530.0,1014.3 1506.6,1000.8 1506.6,973.8 1530.0,960.3 1553.4,973.8" fill="none" stroke="rgba(184,115,51,0.017)" stroke-width="0.4"/><polygon points="1643.4,948.8 1620.0,962.3 1596.6,948.8 1596.6,921.8 1620.0,908.3 1643.4,921.8" fill="none" stroke="rgba(184,115,51,0.013)" stroke-width="0.4"/><polygon points="1733.4,1000.8 1710.0,1014.3 1686.6,1000.8 1686.6,973.8 1710.0,960.3 1733.4,973.8" fill="none" stroke="rgba(184,115,51,0.010)" stroke-width="0.4"/><polygon points="23.4,1052.7 0.0,1066.2 -23.4,1052.7 -23.4,1025.7 -0.0,1012.2 23.4,1025.7" fill="none" stroke="rgba(184,115,51,0.006)" stroke-width="0.4"/><polygon points="113.4,1104.7 90.0,1118.2 66.6,1104.7 66.6,1077.7 90.0,1064.2 113.4,1077.7" fill="none" stroke="rgba(184,115,51,0.008)" stroke-width="0.4"/><polygon points="203.4,1052.7 180.0,1066.2 156.6,1052.7 156.6,1025.7 180.0,1012.2 203.4,1025.7" fill="none" stroke="rgba(184,115,51,0.011)" stroke-width="0.4"/><polygon points="293.4,1104.7 270.0,1118.2 246.6,1104.7 246.6,1077.7 270.0,1064.2 293.4,1077.7" fill="none" stroke="rgba(184,115,51,0.014)" stroke-width="0.4"/><polygon points="383.4,1052.7 360.0,1066.2 336.6,1052.7 336.6,1025.7 360.0,1012.2 383.4,1025.7" fill="none" stroke="rgba(184,115,51,0.019)" stroke-width="0.4"/><polygon points="473.4,1104.7 450.0,1118.2 426.6,1104.7 426.6,1077.7 450.0,1064.2 473.4,1077.7" fill="none" stroke="rgba(184,115,51,0.023)" stroke-width="0.4"/><polygon points="563.4,1052.7 540.0,1066.2 516.6,1052.7 516.6,1025.7 540.0,1012.2 563.4,1025.7" fill="none" stroke="rgba(184,115,51,0.027)" stroke-width="0.4"/><polygon points="653.4,1104.7 630.0,1118.2 606.6,1104.7 606.6,1077.7 630.0,1064.2 653.4,1077.7" fill="none" stroke="rgba(184,115,51,0.031)" stroke-width="0.4"/><polygon points="743.4,1052.7 720.0,1066.2 696.6,1052.7 696.6,1025.7 720.0,1012.2 743.4,1025.7" fill="none" stroke="rgba(184,115,51,0.033)" stroke-width="0.4"/><polygon points="833.4,1104.7 810.0,1118.2 786.6,1104.7 786.6,1077.7 810.0,1064.2 833.4,1077.7" fill="none" stroke="rgba(184,115,51,0.035)" stroke-width="0.4"/><polygon points="923.4,1052.7 900.0,1066.2 876.6,1052.7 876.6,1025.7 900.0,1012.2 923.4,1025.7" fill="none" stroke="rgba(184,115,51,0.035)" stroke-width="0.4"/><polygon points="1013.4,1104.7 990.0,1118.2 966.6,1104.7 966.6,1077.7 990.0,1064.2 1013.4,1077.7" fill="none" stroke="rgba(184,115,51,0.034)" stroke-width="0.4"/><polygon points="1103.4,1052.7 1080.0,1066.2 1056.6,1052.7 1056.6,1025.7 1080.0,1012.2 1103.4,1025.7" fill="none" stroke="rgba(184,115,51,0.031)" stroke-width="0.4"/><polygon points="1193.4,1104.7 1170.0,1118.2 1146.6,1104.7 1146.6,1077.7 1170.0,1064.2 1193.4,1077.7" fill="none" stroke="rgba(184,115,51,0.028)" stroke-width="0.4"/><polygon points="1283.4,1052.7 1260.0,1066.2 1236.6,1052.7 1236.6,1025.7 1260.0,1012.2 1283.4,1025.7" fill="none" stroke="rgba(184,115,51,0.023)" stroke-width="0.4"/><polygon points="1373.4,1104.7 1350.0,1118.2 1326.6,1104.7 1326.6,1077.7 1350.0,1064.2 1373.4,1077.7" fill="none" stroke="rgba(184,115,51,0.019)" stroke-width="0.4"/><polygon points="1463.4,1052.7 1440.0,1066.2 1416.6,1052.7 1416.6,1025.7 1440.0,1012.2 1463.4,1025.7" fill="none" stroke="rgba(184,115,51,0.015)" stroke-width="0.4"/><polygon points="1553.4,1104.7 1530.0,1118.2 1506.6,1104.7 1506.6,1077.7 1530.0,1064.2 1553.4,1077.7" fill="none" stroke="rgba(184,115,51,0.011)" stroke-width="0.4"/><polygon points="1643.4,1052.7 1620.0,1066.2 1596.6,1052.7 1596.6,1025.7 1620.0,1012.2 1643.4,1025.7" fill="none" stroke="rgba(184,115,51,0.008)" stroke-width="0.4"/><polygon points="1733.4,1104.7 1710.0,1118.2 1686.6,1104.7 1686.6,1077.7 1710.0,1064.2 1733.4,1077.7" fill="none" stroke="rgba(184,115,51,0.006)" stroke-width="0.4"/><polygon points="23.4,1156.7 0.0,1170.2 -23.4,1156.7 -23.4,1129.7 -0.0,1116.2 23.4,1129.7" fill="none" stroke="rgba(184,115,51,0.009)" stroke-width="0.4"/><polygon points="113.4,1208.6 90.0,1222.1 66.6,1208.6 66.6,1181.6 90.0,1168.1 113.4,1181.6" fill="none" stroke="rgba(184,115,51,0.013)" stroke-width="0.4"/><polygon points="203.4,1156.7 180.0,1170.2 156.6,1156.7 156.6,1129.7 180.0,1116.2 203.4,1129.7" fill="none" stroke="rgba(184,115,51,0.017)" stroke-width="0.4"/><polygon points="293.4,1208.6 270.0,1222.1 246.6,1208.6 246.6,1181.6 270.0,1168.1 293.4,1181.6" fill="none" stroke="rgba(184,115,51,0.022)" stroke-width="0.4"/><polygon points="383.4,1156.7 360.0,1170.2 336.6,1156.7 336.6,1129.7 360.0,1116.2 383.4,1129.7" fill="none" stroke="rgba(184,115,51,0.026)" stroke-width="0.4"/><polygon points="473.4,1208.6 450.0,1222.1 426.6,1208.6 426.6,1181.6 450.0,1168.1 473.4,1181.6" fill="none" stroke="rgba(184,115,51,0.030)" stroke-width="0.4"/><polygon points="563.4,1156.7 540.0,1170.2 516.6,1156.7 516.6,1129.7 540.0,1116.2 563.4,1129.7" fill="none" stroke="rgba(184,115,51,0.033)" stroke-width="0.4"/><polygon points="653.4,1208.6 630.0,1222.1 606.6,1208.6 606.6,1181.6 630.0,1168.1 653.4,1181.6" fill="none" stroke="rgba(184,115,51,0.035)" stroke-width="0.4"/><polygon points="743.4,1156.7 720.0,1170.2 696.6,1156.7 696.6,1129.7 720.0,1116.2 743.4,1129.7" fill="none" stroke="rgba(184,115,51,0.035)" stroke-width="0.4"/><polygon points="833.4,1208.6 810.0,1222.1 786.6,1208.6 786.6,1181.6 810.0,1168.1 833.4,1181.6" fill="none" stroke="rgba(184,115,51,0.034)" stroke-width="0.4"/><polygon points="923.4,1156.7 900.0,1170.2 876.6,1156.7 876.6,1129.7 900.0,1116.2 923.4,1129.7" fill="none" stroke="rgba(184,115,51,0.032)" stroke-width="0.4"/><polygon points="1013.4,1208.6 990.0,1222.1 966.6,1208.6 966.6,1181.6 990.0,1168.1 1013.4,1181.6" fill="none" stroke="rgba(184,115,51,0.029)" stroke-width="0.4"/><polygon points="1103.4,1156.7 1080.0,1170.2 1056.6,1156.7 1056.6,1129.7 1080.0,1116.2 1103.4,1129.7" fill="none" stroke="rgba(184,115,51,0.025)" stroke-width="0.4"/><polygon points="1193.4,1208.6 1170.0,1222.1 1146.6,1208.6 1146.6,1181.6 1170.0,1168.1 1193.4,1181.6" fill="none" stroke="rgba(184,115,51,0.020)" stroke-width="0.4"/><polygon points="1283.4,1156.7 1260.0,1170.2 1236.6,1156.7 1236.6,1129.7 1260.0,1116.2 1283.4,1129.7" fill="none" stroke="rgba(184,115,51,0.016)" stroke-width="0.4"/><polygon points="1373.4,1208.6 1350.0,1222.1 1326.6,1208.6 1326.6,1181.6 1350.0,1168.1 1373.4,1181.6" fill="none" stroke="rgba(184,115,51,0.012)" stroke-width="0.4"/><polygon points="1463.4,1156.7 1440.0,1170.2 1416.6,1156.7 1416.6,1129.7 1440.0,1116.2 1463.4,1129.7" fill="none" stroke="rgba(184,115,51,0.008)" stroke-width="0.4"/><polygon points="1553.4,1208.6 1530.0,1222.1 1506.6,1208.6 1506.6,1181.6 1530.0,1168.1 1553.4,1181.6" fill="none" stroke="rgba(184,115,51,0.006)" stroke-width="0.4"/><polygon points="1643.4,1156.7 1620.0,1170.2 1596.6,1156.7 1596.6,1129.7 1620.0,1116.2 1643.4,1129.7" fill="none" stroke="rgba(184,115,51,0.005)" stroke-width="0.4"/><polygon points="1733.4,1208.6 1710.0,1222.1 1686.6,1208.6 1686.6,1181.6 1710.0,1168.1 1733.4,1181.6" fill="none" stroke="rgba(184,115,51,0.005)" stroke-width="0.4"/>
</svg>